<svg width="200" height="200" viewBox="0 0 200 200" fill="none" xmlns="http://www.w3.org/2000/svg">
<rect width="200" height="200" fill="#EFF0F3"/>
<path d="M62.7383 137.927C62.7383 137.763 62.8044 137.569 62.9365 137.346C63.0687 137.122 63.1576 136.986 63.2031 136.936C63.2943 136.826 63.3854 136.771 63.4766 136.771C63.5723 136.771 63.6725 136.801 63.7773 136.86C63.8822 136.92 64.0212 136.995 64.1943 137.086C64.3721 137.173 64.5612 137.255 64.7617 137.332C65.2083 137.501 65.598 137.585 65.9307 137.585C66.2679 137.585 66.5413 137.555 66.751 137.496C66.9606 137.437 67.1406 137.348 67.291 137.229C67.6009 136.979 67.7559 136.628 67.7559 136.177C67.7559 135.607 67.3252 135.122 66.4639 134.721C66.2178 134.607 65.9398 134.493 65.6299 134.379C65.3245 134.26 65.001 134.103 64.6592 133.907C64.3219 133.711 64.0189 133.481 63.75 133.217C63.153 132.624 62.8545 131.927 62.8545 131.125C62.8545 130.273 63.2031 129.589 63.9004 129.074C64.5521 128.591 65.32 128.35 66.2041 128.35C67.1885 128.35 67.9974 128.564 68.6309 128.992C68.9772 129.22 69.1504 129.432 69.1504 129.628C69.1504 129.733 69.0889 129.901 68.9658 130.134C68.8428 130.366 68.7425 130.523 68.665 130.605C68.5921 130.688 68.5238 130.729 68.46 130.729C68.346 130.729 68.1956 130.667 68.0088 130.544C67.8265 130.421 67.5645 130.286 67.2227 130.141C66.8809 129.995 66.5573 129.922 66.252 129.922C65.9466 129.922 65.7005 129.947 65.5137 129.997C65.3314 130.047 65.1719 130.122 65.0352 130.223C64.7526 130.437 64.6113 130.749 64.6113 131.159C64.6113 131.752 65.0169 132.221 65.8281 132.567L66.4912 132.841C67.3799 133.183 68.0544 133.561 68.5146 133.976C69.1481 134.55 69.4648 135.254 69.4648 136.088C69.4648 137.018 69.1139 137.774 68.4121 138.357C67.765 138.9 67.0062 139.171 66.1357 139.171C65.0192 139.171 64.069 138.941 63.2852 138.48C62.9206 138.271 62.7383 138.086 62.7383 137.927ZM72.5547 135.521L72.5479 135.65C72.5479 136.275 72.7461 136.776 73.1426 137.154C73.5573 137.555 74.1201 137.756 74.8311 137.756C75.4782 137.756 76.0798 137.562 76.6357 137.175C76.7406 137.102 76.834 137.065 76.916 137.065C77.0846 137.065 77.2122 137.15 77.2988 137.318L77.4834 137.701C77.5244 137.792 77.5449 137.89 77.5449 137.995C77.5449 138.1 77.4971 138.209 77.4014 138.323C77.3102 138.433 77.1895 138.533 77.0391 138.624C76.8887 138.715 76.7132 138.795 76.5127 138.863C76.3167 138.932 76.1139 138.989 75.9043 139.034C75.485 139.125 75.0475 139.171 74.5918 139.171C74.1361 139.171 73.6758 139.084 73.2109 138.911C72.7507 138.738 72.3519 138.485 72.0146 138.152C71.29 137.446 70.9277 136.491 70.9277 135.288C70.9277 133.178 71.6706 131.866 73.1562 131.351C73.6211 131.191 74.0973 131.111 74.585 131.111C75.0771 131.111 75.4941 131.164 75.8359 131.269C76.1823 131.373 76.4808 131.528 76.7314 131.733C77.2601 132.166 77.5244 132.77 77.5244 133.545C77.5244 134.306 77.2145 134.887 76.5947 135.288C76.0524 135.639 75.3369 135.814 74.4482 135.814C73.9014 135.814 73.2702 135.716 72.5547 135.521ZM75.918 133.524C75.918 132.873 75.4805 132.547 74.6055 132.547C73.7715 132.547 73.1882 132.852 72.8555 133.463C72.737 133.677 72.6595 133.941 72.623 134.256C73.015 134.452 73.514 134.55 74.1201 134.55C75.3187 134.55 75.918 134.208 75.918 133.524ZM81.25 137.12C81.25 137.444 81.3639 137.605 81.5918 137.605C81.6647 137.605 81.7581 137.585 81.8721 137.544C82.0817 137.466 82.2093 137.428 82.2549 137.428C82.3597 137.428 82.4417 137.494 82.501 137.626L82.7129 138.111C82.7402 138.18 82.7539 138.243 82.7539 138.303C82.7539 138.408 82.6673 138.535 82.4941 138.686C82.1478 138.973 81.6943 139.116 81.1338 139.116C80.113 139.116 79.6025 138.435 79.6025 137.072V127.324C79.6025 127.201 79.639 127.096 79.7119 127.01C79.7848 126.923 79.8714 126.88 79.9717 126.88H80.8877C80.9925 126.88 81.0791 126.923 81.1475 127.01C81.2158 127.096 81.25 127.201 81.25 127.324V137.12ZM85.4062 135.521L85.3994 135.65C85.3994 136.275 85.5977 136.776 85.9941 137.154C86.4089 137.555 86.9717 137.756 87.6826 137.756C88.3298 137.756 88.9313 137.562 89.4873 137.175C89.5921 137.102 89.6855 137.065 89.7676 137.065C89.9362 137.065 90.0638 137.15 90.1504 137.318L90.335 137.701C90.376 137.792 90.3965 137.89 90.3965 137.995C90.3965 138.1 90.3486 138.209 90.2529 138.323C90.1618 138.433 90.041 138.533 89.8906 138.624C89.7402 138.715 89.5648 138.795 89.3643 138.863C89.1683 138.932 88.9655 138.989 88.7559 139.034C88.3366 139.125 87.8991 139.171 87.4434 139.171C86.9876 139.171 86.5273 139.084 86.0625 138.911C85.6022 138.738 85.2035 138.485 84.8662 138.152C84.1416 137.446 83.7793 136.491 83.7793 135.288C83.7793 133.178 84.5221 131.866 86.0078 131.351C86.4727 131.191 86.9489 131.111 87.4365 131.111C87.9287 131.111 88.3457 131.164 88.6875 131.269C89.0339 131.373 89.3324 131.528 89.583 131.733C90.1117 132.166 90.376 132.77 90.376 133.545C90.376 134.306 90.0661 134.887 89.4463 135.288C88.904 135.639 88.1885 135.814 87.2998 135.814C86.7529 135.814 86.1217 135.716 85.4062 135.521ZM88.7695 133.524C88.7695 132.873 88.332 132.547 87.457 132.547C86.623 132.547 86.0397 132.852 85.707 133.463C85.5885 133.677 85.5111 133.941 85.4746 134.256C85.8665 134.452 86.3656 134.55 86.9717 134.55C88.1702 134.55 88.7695 134.208 88.7695 133.524ZM97.5674 134.331C97.1937 134.331 97.0068 134.146 97.0068 133.777C97.0068 133.354 96.877 133.03 96.6172 132.807C96.3939 132.611 96.0931 132.513 95.7148 132.513C95.3411 132.513 95.0312 132.59 94.7852 132.745C94.5391 132.9 94.3385 133.098 94.1836 133.34C93.8828 133.814 93.7324 134.383 93.7324 135.049C93.7324 136.293 94.1107 137.109 94.8672 137.496C95.1406 137.637 95.4437 137.708 95.7764 137.708C96.109 137.708 96.3825 137.672 96.5967 137.599C96.8109 137.526 97.0023 137.446 97.1709 137.359C97.3395 137.273 97.4854 137.193 97.6084 137.12C97.736 137.047 97.8408 137.011 97.9229 137.011C98.0869 137.011 98.2168 137.086 98.3125 137.236L98.4629 137.489C98.5312 137.608 98.5654 137.724 98.5654 137.838C98.5654 137.947 98.5199 138.063 98.4287 138.187C98.3376 138.305 98.2145 138.414 98.0596 138.515C97.9092 138.615 97.736 138.706 97.54 138.788C97.3441 138.87 97.1413 138.941 96.9316 139C95.929 139.269 95.013 139.228 94.1836 138.877C93.2539 138.485 92.6136 137.783 92.2627 136.771C92.0895 136.27 92.0029 135.71 92.0029 135.09C92.0029 134.47 92.0941 133.914 92.2764 133.422C92.4632 132.93 92.7207 132.513 93.0488 132.171C93.7279 131.469 94.6143 131.118 95.708 131.118C96.6742 131.118 97.4147 131.371 97.9297 131.877C98.3626 132.31 98.5791 132.852 98.5791 133.504C98.5791 134.055 98.2965 134.331 97.7314 134.331H97.5674ZM105.729 134.331C105.356 134.331 105.169 134.146 105.169 133.777C105.169 133.354 105.039 133.03 104.779 132.807C104.556 132.611 104.255 132.513 103.877 132.513C103.503 132.513 103.193 132.59 102.947 132.745C102.701 132.9 102.501 133.098 102.346 133.34C102.045 133.814 101.895 134.383 101.895 135.049C101.895 136.293 102.273 137.109 103.029 137.496C103.303 137.637 103.606 137.708 103.938 137.708C104.271 137.708 104.545 137.672 104.759 137.599C104.973 137.526 105.164 137.446 105.333 137.359C105.502 137.273 105.647 137.193 105.771 137.12C105.898 137.047 106.003 137.011 106.085 137.011C106.249 137.011 106.379 137.086 106.475 137.236L106.625 137.489C106.693 137.608 106.728 137.724 106.728 137.838C106.728 137.947 106.682 138.063 106.591 138.187C106.5 138.305 106.377 138.414 106.222 138.515C106.071 138.615 105.898 138.706 105.702 138.788C105.506 138.87 105.303 138.941 105.094 139C104.091 139.269 103.175 139.228 102.346 138.877C101.416 138.485 100.776 137.783 100.425 136.771C100.252 136.27 100.165 135.71 100.165 135.09C100.165 134.47 100.256 133.914 100.438 133.422C100.625 132.93 100.883 132.513 101.211 132.171C101.89 131.469 102.776 131.118 103.87 131.118C104.836 131.118 105.577 131.371 106.092 131.877C106.525 132.31 106.741 132.852 106.741 133.504C106.741 134.055 106.459 134.331 105.894 134.331H105.729ZM109.592 129.97C109.282 129.97 109.018 129.863 108.799 129.648C108.58 129.439 108.471 129.174 108.471 128.855C108.471 128.546 108.58 128.281 108.799 128.062C109.008 127.853 109.273 127.748 109.592 127.748C110.079 127.748 110.421 127.971 110.617 128.418C110.676 128.55 110.706 128.696 110.706 128.855C110.706 129.174 110.597 129.439 110.378 129.648C110.159 129.863 109.897 129.97 109.592 129.97ZM110.392 137.12C110.392 137.444 110.499 137.605 110.713 137.605C110.786 137.605 110.868 137.585 110.959 137.544C111.137 137.466 111.257 137.428 111.321 137.428C111.417 137.428 111.494 137.494 111.554 137.626L111.766 138.104C111.802 138.182 111.82 138.255 111.82 138.323C111.82 138.519 111.652 138.701 111.314 138.87C110.995 139.034 110.679 139.116 110.364 139.116C110.054 139.116 109.806 139.082 109.619 139.014C109.432 138.945 109.273 138.831 109.141 138.672C108.876 138.344 108.744 137.811 108.744 137.072V131.74C108.744 131.613 108.781 131.506 108.854 131.419C108.926 131.332 109.013 131.289 109.113 131.289H110.029C110.134 131.289 110.221 131.332 110.289 131.419C110.357 131.506 110.392 131.613 110.392 131.74V137.12ZM112.996 135.117C112.996 134.525 113.094 133.982 113.29 133.49C113.491 132.993 113.764 132.57 114.11 132.219C114.835 131.485 115.749 131.118 116.852 131.118C118.087 131.118 119.044 131.485 119.723 132.219C120.379 132.925 120.707 133.896 120.707 135.131C120.707 136.325 120.336 137.3 119.593 138.057C118.868 138.799 117.954 139.171 116.852 139.171C115.689 139.171 114.755 138.79 114.049 138.029C113.347 137.286 112.996 136.316 112.996 135.117ZM115.19 133.381C115.022 133.632 114.899 133.919 114.821 134.242C114.744 134.561 114.705 134.887 114.705 135.22C114.705 135.548 114.748 135.865 114.835 136.17C114.926 136.471 115.061 136.74 115.238 136.977C115.63 137.496 116.177 137.756 116.879 137.756C117.594 137.756 118.137 137.501 118.506 136.99C118.834 136.544 118.998 135.935 118.998 135.165C118.998 134.012 118.62 133.217 117.863 132.779C117.585 132.62 117.248 132.54 116.852 132.54C116.46 132.54 116.127 132.618 115.854 132.772C115.585 132.923 115.364 133.126 115.19 133.381ZM122.771 131.781C122.771 131.453 122.929 131.289 123.243 131.289H123.619C123.874 131.289 124.048 131.385 124.139 131.576C124.266 131.85 124.376 132.21 124.467 132.656C124.877 131.909 125.488 131.43 126.299 131.221C126.554 131.152 126.871 131.118 127.249 131.118C127.632 131.118 127.985 131.2 128.309 131.364C128.632 131.524 128.887 131.745 129.074 132.027C129.421 132.542 129.594 133.301 129.594 134.304V138.549C129.594 138.676 129.553 138.784 129.471 138.87C129.389 138.957 129.268 139 129.108 139H128.438C128.265 139 128.138 138.957 128.056 138.87C127.974 138.784 127.933 138.676 127.933 138.549V134.297C127.933 133.13 127.504 132.547 126.647 132.547C126.146 132.547 125.688 132.757 125.273 133.176C124.831 133.627 124.61 134.151 124.61 134.748V138.549C124.61 138.676 124.572 138.784 124.494 138.87C124.417 138.957 124.298 139 124.139 139H123.435C123.275 139 123.154 138.957 123.072 138.87C122.99 138.784 122.949 138.676 122.949 138.549V134.352C122.949 133.436 122.92 132.798 122.86 132.438C122.801 132.073 122.771 131.854 122.771 131.781ZM138.296 138.638C138.296 138.879 138.177 139 137.94 139H137.277C137.1 139 136.993 138.966 136.956 138.897C136.92 138.825 136.899 138.761 136.895 138.706C136.89 138.647 136.881 138.576 136.867 138.494C136.84 138.271 136.801 138.029 136.751 137.77C136.396 138.421 135.837 138.852 135.076 139.062C134.807 139.134 134.511 139.171 134.188 139.171C133.864 139.171 133.54 139.116 133.217 139.007C132.893 138.902 132.606 138.745 132.355 138.535C131.79 138.061 131.508 137.439 131.508 136.669C131.508 135.826 131.818 135.181 132.438 134.734C132.948 134.374 133.604 134.194 134.406 134.194C135.208 134.194 135.887 134.429 136.443 134.898C136.457 134.743 136.464 134.55 136.464 134.317C136.464 134.085 136.418 133.853 136.327 133.62C136.236 133.388 136.106 133.194 135.938 133.039C135.591 132.734 135.108 132.581 134.488 132.581C133.932 132.581 133.367 132.734 132.793 133.039C132.684 133.098 132.588 133.128 132.506 133.128C132.383 133.128 132.264 133.007 132.15 132.766C132.027 132.52 131.966 132.342 131.966 132.232C131.966 132.032 132.116 131.838 132.417 131.651C132.991 131.296 133.759 131.118 134.721 131.118C135.596 131.118 136.32 131.357 136.895 131.836C137.574 132.41 137.913 133.221 137.913 134.27C137.913 134.734 137.838 135.32 137.688 136.026C138.075 137.129 138.278 138 138.296 138.638ZM133.716 135.739C133.529 135.876 133.395 136.013 133.312 136.149C133.235 136.286 133.196 136.448 133.196 136.635C133.196 136.817 133.228 136.981 133.292 137.127C133.36 137.268 133.454 137.387 133.572 137.482C133.823 137.678 134.103 137.776 134.413 137.776C134.728 137.776 134.985 137.74 135.186 137.667C135.386 137.594 135.559 137.501 135.705 137.387C136.02 137.141 136.177 136.881 136.177 136.607C136.149 136.266 135.96 135.997 135.609 135.801C135.295 135.618 134.924 135.527 134.495 135.527C134.162 135.527 133.903 135.598 133.716 135.739ZM51.4521 151.754C51.3975 152.529 51.1924 153.531 50.8369 154.762C50.3356 156.516 49.7751 157.767 49.1553 158.515C48.9411 158.765 48.7246 158.923 48.5059 158.986C48.2871 159.05 48.0661 159.082 47.8428 159.082C47.6195 159.082 47.4258 159.057 47.2617 159.007C47.0977 158.957 46.9609 158.879 46.8516 158.774C46.6693 158.597 46.5052 158.264 46.3594 157.776C46.0586 156.774 45.7464 155.794 45.4229 154.837L44.4316 151.979C44.3952 151.87 44.377 151.777 44.377 151.699C44.377 151.426 44.5547 151.289 44.9102 151.289H45.5322C45.6917 151.289 45.8193 151.326 45.915 151.398C46.0153 151.467 46.0996 151.601 46.168 151.802C46.7604 153.561 47.264 155.34 47.6787 157.141C47.7288 157.373 47.8291 157.489 47.9795 157.489C48.098 157.489 48.2074 157.394 48.3076 157.202C48.7998 156.286 49.1963 154.917 49.4971 153.094C49.5791 152.615 49.6383 152.248 49.6748 151.993C49.7158 151.738 49.7546 151.581 49.791 151.521C49.832 151.462 49.8776 151.417 49.9277 151.385C50.0189 151.321 50.1191 151.289 50.2285 151.289H51.0146C51.3063 151.289 51.4521 151.444 51.4521 151.754ZM59.5254 158.638C59.5254 158.879 59.4069 159 59.1699 159H58.5068C58.3291 159 58.222 158.966 58.1855 158.897C58.1491 158.825 58.1286 158.761 58.124 158.706C58.1195 158.647 58.1104 158.576 58.0967 158.494C58.0693 158.271 58.0306 158.029 57.9805 157.77C57.625 158.421 57.0667 158.852 56.3057 159.062C56.0368 159.134 55.7406 159.171 55.417 159.171C55.0934 159.171 54.7699 159.116 54.4463 159.007C54.1227 158.902 53.8356 158.745 53.585 158.535C53.0199 158.061 52.7373 157.439 52.7373 156.669C52.7373 155.826 53.0472 155.181 53.667 154.734C54.1774 154.374 54.8337 154.194 55.6357 154.194C56.4378 154.194 57.1169 154.429 57.6729 154.898C57.6865 154.743 57.6934 154.55 57.6934 154.317C57.6934 154.085 57.6478 153.853 57.5566 153.62C57.4655 153.388 57.3356 153.194 57.167 153.039C56.8206 152.734 56.3376 152.581 55.7178 152.581C55.1618 152.581 54.5967 152.734 54.0225 153.039C53.9131 153.098 53.8174 153.128 53.7354 153.128C53.6123 153.128 53.4938 153.007 53.3799 152.766C53.2568 152.52 53.1953 152.342 53.1953 152.232C53.1953 152.032 53.3457 151.838 53.6465 151.651C54.2207 151.296 54.9886 151.118 55.9502 151.118C56.8252 151.118 57.5498 151.357 58.124 151.836C58.8031 152.41 59.1426 153.221 59.1426 154.27C59.1426 154.734 59.0674 155.32 58.917 156.026C59.3044 157.129 59.5072 158 59.5254 158.638ZM54.9453 155.739C54.7585 155.876 54.624 156.013 54.542 156.149C54.4645 156.286 54.4258 156.448 54.4258 156.635C54.4258 156.817 54.4577 156.981 54.5215 157.127C54.5898 157.268 54.6833 157.387 54.8018 157.482C55.0524 157.678 55.3327 157.776 55.6426 157.776C55.957 157.776 56.2145 157.74 56.415 157.667C56.6156 157.594 56.7887 157.501 56.9346 157.387C57.249 157.141 57.4062 156.881 57.4062 156.607C57.3789 156.266 57.1898 155.997 56.8389 155.801C56.5244 155.618 56.153 155.527 55.7246 155.527C55.3919 155.527 55.1322 155.598 54.9453 155.739ZM61.3301 151.781C61.3301 151.453 61.4736 151.289 61.7607 151.289H62.1299C62.3805 151.289 62.5583 151.398 62.6631 151.617C62.8135 151.936 62.9229 152.376 62.9912 152.937C62.9912 152.946 62.9935 152.95 62.998 152.95C63.0072 152.95 63.0231 152.873 63.0459 152.718C63.0687 152.563 63.1348 152.374 63.2441 152.15C63.3535 151.923 63.488 151.731 63.6475 151.576C63.971 151.271 64.3675 151.118 64.8369 151.118C65.361 151.118 65.7256 151.205 65.9307 151.378C66.0264 151.455 66.0651 151.562 66.0469 151.699L65.9375 152.561C65.9102 152.793 65.7917 152.909 65.582 152.909C65.4818 152.909 65.3587 152.889 65.2129 152.848C64.9303 152.775 64.707 152.738 64.543 152.738C64.3789 152.738 64.2057 152.811 64.0234 152.957C63.8411 153.098 63.6839 153.276 63.5518 153.49C63.2829 153.937 63.1484 154.413 63.1484 154.919V158.549C63.1484 158.676 63.112 158.784 63.0391 158.87C62.9661 158.957 62.8613 159 62.7246 159H61.9316C61.7858 159 61.6742 158.957 61.5967 158.87C61.5238 158.784 61.4873 158.676 61.4873 158.549V153.839C61.4873 153.037 61.46 152.508 61.4053 152.253C61.3551 151.993 61.3301 151.836 61.3301 151.781ZM68.1729 149.97C67.863 149.97 67.5986 149.863 67.3799 149.648C67.1611 149.439 67.0518 149.174 67.0518 148.855C67.0518 148.546 67.1611 148.281 67.3799 148.062C67.5895 147.853 67.8538 147.748 68.1729 147.748C68.6605 147.748 69.0023 147.971 69.1982 148.418C69.2575 148.55 69.2871 148.696 69.2871 148.855C69.2871 149.174 69.1777 149.439 68.959 149.648C68.7402 149.863 68.4782 149.97 68.1729 149.97ZM68.9727 157.12C68.9727 157.444 69.0798 157.605 69.2939 157.605C69.3669 157.605 69.4489 157.585 69.54 157.544C69.7178 157.466 69.8385 157.428 69.9023 157.428C69.998 157.428 70.0755 157.494 70.1348 157.626L70.3467 158.104C70.3831 158.182 70.4014 158.255 70.4014 158.323C70.4014 158.519 70.2327 158.701 69.8955 158.87C69.5765 159.034 69.2598 159.116 68.9453 159.116C68.6354 159.116 68.387 159.082 68.2002 159.014C68.0133 158.945 67.8538 158.831 67.7217 158.672C67.4574 158.344 67.3252 157.811 67.3252 157.072V151.74C67.3252 151.613 67.3617 151.506 67.4346 151.419C67.5075 151.332 67.5941 151.289 67.6943 151.289H68.6104C68.7152 151.289 68.8018 151.332 68.8701 151.419C68.9385 151.506 68.9727 151.613 68.9727 151.74V157.12ZM78.2148 158.638C78.2148 158.879 78.0964 159 77.8594 159H77.1963C77.0186 159 76.9115 158.966 76.875 158.897C76.8385 158.825 76.818 158.761 76.8135 158.706C76.8089 158.647 76.7998 158.576 76.7861 158.494C76.7588 158.271 76.7201 158.029 76.6699 157.77C76.3145 158.421 75.7562 158.852 74.9951 159.062C74.7262 159.134 74.43 159.171 74.1064 159.171C73.7829 159.171 73.4593 159.116 73.1357 159.007C72.8122 158.902 72.5251 158.745 72.2744 158.535C71.7093 158.061 71.4268 157.439 71.4268 156.669C71.4268 155.826 71.7367 155.181 72.3564 154.734C72.8669 154.374 73.5231 154.194 74.3252 154.194C75.1273 154.194 75.8063 154.429 76.3623 154.898C76.376 154.743 76.3828 154.55 76.3828 154.317C76.3828 154.085 76.3372 153.853 76.2461 153.62C76.1549 153.388 76.0251 153.194 75.8564 153.039C75.5101 152.734 75.027 152.581 74.4072 152.581C73.8512 152.581 73.2861 152.734 72.7119 153.039C72.6025 153.098 72.5068 153.128 72.4248 153.128C72.3018 153.128 72.1833 153.007 72.0693 152.766C71.9463 152.52 71.8848 152.342 71.8848 152.232C71.8848 152.032 72.0352 151.838 72.3359 151.651C72.9102 151.296 73.6781 151.118 74.6396 151.118C75.5146 151.118 76.2393 151.357 76.8135 151.836C77.4925 152.41 77.832 153.221 77.832 154.27C77.832 154.734 77.7568 155.32 77.6064 156.026C77.9938 157.129 78.1966 158 78.2148 158.638ZM73.6348 155.739C73.4479 155.876 73.3135 156.013 73.2314 156.149C73.154 156.286 73.1152 156.448 73.1152 156.635C73.1152 156.817 73.1471 156.981 73.2109 157.127C73.2793 157.268 73.3727 157.387 73.4912 157.482C73.7419 157.678 74.0221 157.776 74.332 157.776C74.6465 157.776 74.904 157.74 75.1045 157.667C75.305 157.594 75.4782 157.501 75.624 157.387C75.9385 157.141 76.0957 156.881 76.0957 156.607C76.0684 156.266 75.8792 155.997 75.5283 155.801C75.2139 155.618 74.8424 155.527 74.4141 155.527C74.0814 155.527 73.8216 155.598 73.6348 155.739ZM82.3301 157.77C83.2051 157.77 83.6426 157.476 83.6426 156.888C83.6426 156.564 83.3942 156.291 82.8975 156.067C82.6878 155.972 82.4577 155.883 82.207 155.801C81.9609 155.719 81.724 155.621 81.4961 155.507C81.2682 155.393 81.054 155.27 80.8535 155.138C80.6576 155.001 80.4867 154.846 80.3408 154.673C80.04 154.308 79.8896 153.846 79.8896 153.285C79.8896 152.602 80.1745 152.059 80.7441 151.658C81.25 151.298 81.8721 151.118 82.6104 151.118C83.4033 151.118 84.0664 151.273 84.5996 151.583C84.7819 151.692 84.873 151.818 84.873 151.959C84.873 152.16 84.8184 152.381 84.709 152.622C84.6042 152.859 84.4788 152.978 84.333 152.978C84.1917 152.978 84.0618 152.948 83.9434 152.889C83.8294 152.829 83.7246 152.779 83.6289 152.738C83.5378 152.693 83.4398 152.656 83.335 152.629C83.1071 152.561 82.8952 152.526 82.6992 152.526C82.5078 152.526 82.3529 152.54 82.2344 152.567C82.1159 152.595 82.0088 152.638 81.9131 152.697C81.6807 152.839 81.5645 153.012 81.5645 153.217C81.5645 153.422 81.61 153.579 81.7012 153.688C81.7969 153.798 81.9268 153.898 82.0908 153.989C82.2549 154.08 82.4508 154.172 82.6787 154.263L83.417 154.57C84.014 154.83 84.4173 155.065 84.627 155.274C85.0371 155.694 85.2422 156.179 85.2422 156.73C85.2422 157.423 85.0052 157.993 84.5312 158.439C84.0072 158.927 83.262 159.171 82.2959 159.171C81.3161 159.171 80.5801 158.982 80.0879 158.604C79.8464 158.421 79.7256 158.257 79.7256 158.111C79.7256 157.965 79.7507 157.836 79.8008 157.722C79.8555 157.603 79.9238 157.466 80.0059 157.312C80.0924 157.152 80.2064 157.072 80.3477 157.072C80.4935 157.072 80.6462 157.138 80.8057 157.271C80.9697 157.398 81.193 157.514 81.4756 157.619C81.7581 157.719 82.043 157.77 82.3301 157.77ZM91.5381 149.97C91.2282 149.97 90.9639 149.863 90.7451 149.648C90.5264 149.439 90.417 149.174 90.417 148.855C90.417 148.546 90.5264 148.281 90.7451 148.062C90.9548 147.853 91.2191 147.748 91.5381 147.748C92.0257 147.748 92.3675 147.971 92.5635 148.418C92.6227 148.55 92.6523 148.696 92.6523 148.855C92.6523 149.174 92.543 149.439 92.3242 149.648C92.1055 149.863 91.8434 149.97 91.5381 149.97ZM92.3379 157.12C92.3379 157.444 92.445 157.605 92.6592 157.605C92.7321 157.605 92.8141 157.585 92.9053 157.544C93.083 157.466 93.2038 157.428 93.2676 157.428C93.3633 157.428 93.4408 157.494 93.5 157.626L93.7119 158.104C93.7484 158.182 93.7666 158.255 93.7666 158.323C93.7666 158.519 93.598 158.701 93.2607 158.87C92.9417 159.034 92.625 159.116 92.3105 159.116C92.0007 159.116 91.7523 159.082 91.5654 159.014C91.3786 158.945 91.2191 158.831 91.0869 158.672C90.8226 158.344 90.6904 157.811 90.6904 157.072V151.74C90.6904 151.613 90.7269 151.506 90.7998 151.419C90.8727 151.332 90.9593 151.289 91.0596 151.289H91.9756C92.0804 151.289 92.167 151.332 92.2354 151.419C92.3037 151.506 92.3379 151.613 92.3379 151.74V157.12ZM99.5908 151.118C100.739 151.118 101.466 151.631 101.771 152.656C102.227 151.923 102.831 151.444 103.583 151.221C103.838 151.148 104.16 151.111 104.547 151.111C104.934 151.111 105.308 151.207 105.668 151.398C106.033 151.59 106.301 151.84 106.475 152.15C106.652 152.456 106.764 152.793 106.81 153.162C106.86 153.531 106.885 153.928 106.885 154.352V158.549C106.885 158.676 106.844 158.784 106.762 158.87C106.68 158.957 106.559 159 106.399 159H105.729C105.556 159 105.429 158.957 105.347 158.87C105.265 158.784 105.224 158.676 105.224 158.549V154.29C105.224 153.702 105.121 153.265 104.916 152.978C104.715 152.69 104.396 152.547 103.959 152.547C103.462 152.547 103.027 152.766 102.653 153.203C102.252 153.659 102.052 154.224 102.052 154.898V158.549C102.052 158.676 102.011 158.784 101.929 158.87C101.847 158.957 101.726 159 101.566 159H100.896C100.723 159 100.596 158.957 100.514 158.87C100.432 158.784 100.391 158.676 100.391 158.549V154.29C100.391 153.702 100.288 153.265 100.083 152.978C99.8825 152.69 99.5635 152.547 99.126 152.547C98.6292 152.547 98.1917 152.766 97.8135 153.203C97.417 153.659 97.2188 154.224 97.2188 154.898V158.549C97.2188 158.676 97.18 158.784 97.1025 158.87C97.0251 158.957 96.9066 159 96.7471 159H96.043C95.8835 159 95.7627 158.957 95.6807 158.87C95.5986 158.784 95.5576 158.676 95.5576 158.549V154.352C95.5576 153.436 95.528 152.798 95.4688 152.438C95.4095 152.073 95.3799 151.854 95.3799 151.781C95.3799 151.453 95.5371 151.289 95.8516 151.289H96.2275C96.4827 151.289 96.6559 151.385 96.7471 151.576C96.8564 151.809 96.9613 152.169 97.0615 152.656C97.458 151.941 98.0322 151.467 98.7842 151.234C99.0394 151.157 99.3083 151.118 99.5908 151.118ZM115.553 158.638C115.553 158.879 115.434 159 115.197 159H114.534C114.356 159 114.249 158.966 114.213 158.897C114.176 158.825 114.156 158.761 114.151 158.706C114.147 158.647 114.138 158.576 114.124 158.494C114.097 158.271 114.058 158.029 114.008 157.77C113.652 158.421 113.094 158.852 112.333 159.062C112.064 159.134 111.768 159.171 111.444 159.171C111.121 159.171 110.797 159.116 110.474 159.007C110.15 158.902 109.863 158.745 109.612 158.535C109.047 158.061 108.765 157.439 108.765 156.669C108.765 155.826 109.075 155.181 109.694 154.734C110.205 154.374 110.861 154.194 111.663 154.194C112.465 154.194 113.144 154.429 113.7 154.898C113.714 154.743 113.721 154.55 113.721 154.317C113.721 154.085 113.675 153.853 113.584 153.62C113.493 153.388 113.363 153.194 113.194 153.039C112.848 152.734 112.365 152.581 111.745 152.581C111.189 152.581 110.624 152.734 110.05 153.039C109.94 153.098 109.845 153.128 109.763 153.128C109.64 153.128 109.521 153.007 109.407 152.766C109.284 152.52 109.223 152.342 109.223 152.232C109.223 152.032 109.373 151.838 109.674 151.651C110.248 151.296 111.016 151.118 111.978 151.118C112.853 151.118 113.577 151.357 114.151 151.836C114.83 152.41 115.17 153.221 115.17 154.27C115.17 154.734 115.095 155.32 114.944 156.026C115.332 157.129 115.535 158 115.553 158.638ZM110.973 155.739C110.786 155.876 110.651 156.013 110.569 156.149C110.492 156.286 110.453 156.448 110.453 156.635C110.453 156.817 110.485 156.981 110.549 157.127C110.617 157.268 110.711 157.387 110.829 157.482C111.08 157.678 111.36 157.776 111.67 157.776C111.984 157.776 112.242 157.74 112.442 157.667C112.643 157.594 112.816 157.501 112.962 157.387C113.276 157.141 113.434 156.881 113.434 156.607C113.406 156.266 113.217 155.997 112.866 155.801C112.552 155.618 112.18 155.527 111.752 155.527C111.419 155.527 111.16 155.598 110.973 155.739ZM111.916 150.188C111.857 150.225 111.788 150.243 111.711 150.243C111.633 150.243 111.574 150.211 111.533 150.147L111.198 149.683C111.166 149.637 111.15 149.585 111.15 149.525C111.15 149.462 111.196 149.389 111.287 149.307L113.399 147.386C113.513 147.281 113.62 147.229 113.721 147.229C113.88 147.229 113.999 147.279 114.076 147.379L114.589 148.028C114.644 148.097 114.669 148.167 114.664 148.24C114.66 148.427 114.571 148.573 114.397 148.678L111.916 150.188ZM119.408 158.269C119.837 158.059 120.29 157.954 120.769 157.954C121.252 157.954 121.68 158 122.054 158.091C122.432 158.177 122.771 158.316 123.072 158.508C123.747 158.936 124.084 159.535 124.084 160.306C124.084 161.108 123.701 161.753 122.936 162.24C122.257 162.669 121.441 162.883 120.488 162.883C119.518 162.883 118.709 162.673 118.062 162.254C117.364 161.798 117.016 161.178 117.016 160.395C117.016 159.442 117.519 158.521 118.526 157.633C118.918 157.291 119.351 156.983 119.825 156.71C119.082 156.642 118.449 156.38 117.925 155.924C117.337 155.409 117.043 154.769 117.043 154.003C117.043 153.123 117.373 152.41 118.034 151.863C118.64 151.367 119.363 151.118 120.201 151.118C121.104 151.118 121.812 151.362 122.327 151.85C122.487 152 122.614 152.171 122.71 152.362C122.71 151.943 122.655 151.51 122.546 151.063C122.441 150.612 122.389 150.343 122.389 150.257C122.389 150.17 122.405 150.102 122.437 150.052C122.473 149.997 122.514 149.956 122.56 149.929C122.628 149.888 122.705 149.867 122.792 149.867H123.38C123.758 149.867 123.947 150.394 123.947 151.446C123.947 152.289 123.779 153.066 123.441 153.777C123.451 153.878 123.455 154.01 123.455 154.174C123.455 154.338 123.419 154.529 123.346 154.748C123.273 154.967 123.175 155.172 123.052 155.363C122.933 155.55 122.794 155.723 122.635 155.883C122.48 156.042 122.313 156.19 122.136 156.327C121.963 156.464 121.787 156.589 121.609 156.703C120.611 157.337 120.014 157.733 119.818 157.893C119.622 158.048 119.486 158.173 119.408 158.269ZM119.094 155.097C119.249 155.229 119.429 155.331 119.634 155.404C119.843 155.473 120.064 155.507 120.297 155.507C120.534 155.507 120.75 155.473 120.946 155.404C121.142 155.331 121.315 155.227 121.466 155.09C121.785 154.803 121.944 154.434 121.944 153.982C121.944 153.522 121.767 153.16 121.411 152.896C121.097 152.663 120.709 152.547 120.249 152.547C119.52 152.547 119.016 152.818 118.738 153.36C118.647 153.538 118.602 153.745 118.602 153.982C118.602 154.215 118.645 154.424 118.731 154.611C118.818 154.798 118.939 154.96 119.094 155.097ZM118.766 159.533C118.597 159.725 118.513 159.937 118.513 160.169C118.513 160.401 118.57 160.6 118.684 160.764C118.798 160.928 118.948 161.064 119.135 161.174C119.495 161.379 119.946 161.481 120.488 161.481C121.345 161.481 121.942 161.27 122.279 160.846C122.389 160.704 122.443 160.527 122.443 160.312C122.443 160.098 122.375 159.916 122.238 159.766C122.106 159.615 121.94 159.499 121.739 159.417C121.407 159.28 120.974 159.212 120.44 159.212C119.62 159.212 119.062 159.319 118.766 159.533ZM126.839 155.521L126.832 155.65C126.832 156.275 127.03 156.776 127.427 157.154C127.841 157.555 128.404 157.756 129.115 157.756C129.762 157.756 130.364 157.562 130.92 157.175C131.025 157.102 131.118 157.065 131.2 157.065C131.369 157.065 131.496 157.15 131.583 157.318L131.768 157.701C131.809 157.792 131.829 157.89 131.829 157.995C131.829 158.1 131.781 158.209 131.686 158.323C131.594 158.433 131.474 158.533 131.323 158.624C131.173 158.715 130.997 158.795 130.797 158.863C130.601 158.932 130.398 158.989 130.188 159.034C129.769 159.125 129.332 159.171 128.876 159.171C128.42 159.171 127.96 159.084 127.495 158.911C127.035 158.738 126.636 158.485 126.299 158.152C125.574 157.446 125.212 156.491 125.212 155.288C125.212 153.178 125.955 151.866 127.44 151.351C127.905 151.191 128.382 151.111 128.869 151.111C129.361 151.111 129.778 151.164 130.12 151.269C130.466 151.373 130.765 151.528 131.016 151.733C131.544 152.166 131.809 152.77 131.809 153.545C131.809 154.306 131.499 154.887 130.879 155.288C130.337 155.639 129.621 155.814 128.732 155.814C128.186 155.814 127.554 155.716 126.839 155.521ZM130.202 153.524C130.202 152.873 129.765 152.547 128.89 152.547C128.056 152.547 127.472 152.852 127.14 153.463C127.021 153.677 126.944 153.941 126.907 154.256C127.299 154.452 127.798 154.55 128.404 154.55C129.603 154.55 130.202 154.208 130.202 153.524ZM133.866 151.781C133.866 151.453 134.023 151.289 134.338 151.289H134.714C134.969 151.289 135.142 151.385 135.233 151.576C135.361 151.85 135.47 152.21 135.562 152.656C135.972 151.909 136.582 151.43 137.394 151.221C137.649 151.152 137.965 151.118 138.344 151.118C138.727 151.118 139.08 151.2 139.403 151.364C139.727 151.524 139.982 151.745 140.169 152.027C140.515 152.542 140.688 153.301 140.688 154.304V158.549C140.688 158.676 140.647 158.784 140.565 158.87C140.483 158.957 140.363 159 140.203 159H139.533C139.36 159 139.232 158.957 139.15 158.87C139.068 158.784 139.027 158.676 139.027 158.549V154.297C139.027 153.13 138.599 152.547 137.742 152.547C137.241 152.547 136.783 152.757 136.368 153.176C135.926 153.627 135.705 154.151 135.705 154.748V158.549C135.705 158.676 135.666 158.784 135.589 158.87C135.511 158.957 135.393 159 135.233 159H134.529C134.37 159 134.249 158.957 134.167 158.87C134.085 158.784 134.044 158.676 134.044 158.549V154.352C134.044 153.436 134.014 152.798 133.955 152.438C133.896 152.073 133.866 151.854 133.866 151.781ZM144.339 155.521L144.332 155.65C144.332 156.275 144.53 156.776 144.927 157.154C145.341 157.555 145.904 157.756 146.615 157.756C147.262 157.756 147.864 157.562 148.42 157.175C148.525 157.102 148.618 157.065 148.7 157.065C148.869 157.065 148.996 157.15 149.083 157.318L149.268 157.701C149.309 157.792 149.329 157.89 149.329 157.995C149.329 158.1 149.281 158.209 149.186 158.323C149.094 158.433 148.974 158.533 148.823 158.624C148.673 158.715 148.497 158.795 148.297 158.863C148.101 158.932 147.898 158.989 147.688 159.034C147.269 159.125 146.832 159.171 146.376 159.171C145.92 159.171 145.46 159.084 144.995 158.911C144.535 158.738 144.136 158.485 143.799 158.152C143.074 157.446 142.712 156.491 142.712 155.288C142.712 153.178 143.455 151.866 144.94 151.351C145.405 151.191 145.882 151.111 146.369 151.111C146.861 151.111 147.278 151.164 147.62 151.269C147.966 151.373 148.265 151.528 148.516 151.733C149.044 152.166 149.309 152.77 149.309 153.545C149.309 154.306 148.999 154.887 148.379 155.288C147.837 155.639 147.121 155.814 146.232 155.814C145.686 155.814 145.054 155.716 144.339 155.521ZM147.702 153.524C147.702 152.873 147.265 152.547 146.39 152.547C145.556 152.547 144.972 152.852 144.64 153.463C144.521 153.677 144.444 153.941 144.407 154.256C144.799 154.452 145.298 154.55 145.904 154.55C147.103 154.55 147.702 154.208 147.702 153.524ZM153.506 157.77C154.381 157.77 154.818 157.476 154.818 156.888C154.818 156.564 154.57 156.291 154.073 156.067C153.864 155.972 153.633 155.883 153.383 155.801C153.137 155.719 152.9 155.621 152.672 155.507C152.444 155.393 152.23 155.27 152.029 155.138C151.833 155.001 151.662 154.846 151.517 154.673C151.216 154.308 151.065 153.846 151.065 153.285C151.065 152.602 151.35 152.059 151.92 151.658C152.426 151.298 153.048 151.118 153.786 151.118C154.579 151.118 155.242 151.273 155.775 151.583C155.958 151.692 156.049 151.818 156.049 151.959C156.049 152.16 155.994 152.381 155.885 152.622C155.78 152.859 155.655 152.978 155.509 152.978C155.368 152.978 155.238 152.948 155.119 152.889C155.005 152.829 154.9 152.779 154.805 152.738C154.714 152.693 154.616 152.656 154.511 152.629C154.283 152.561 154.071 152.526 153.875 152.526C153.684 152.526 153.529 152.54 153.41 152.567C153.292 152.595 153.185 152.638 153.089 152.697C152.856 152.839 152.74 153.012 152.74 153.217C152.74 153.422 152.786 153.579 152.877 153.688C152.973 153.798 153.103 153.898 153.267 153.989C153.431 154.08 153.627 154.172 153.854 154.263L154.593 154.57C155.19 154.83 155.593 155.065 155.803 155.274C156.213 155.694 156.418 156.179 156.418 156.73C156.418 157.423 156.181 157.993 155.707 158.439C155.183 158.927 154.438 159.171 153.472 159.171C152.492 159.171 151.756 158.982 151.264 158.604C151.022 158.421 150.901 158.257 150.901 158.111C150.901 157.965 150.926 157.836 150.977 157.722C151.031 157.603 151.1 157.466 151.182 157.312C151.268 157.152 151.382 157.072 151.523 157.072C151.669 157.072 151.822 157.138 151.981 157.271C152.146 157.398 152.369 157.514 152.651 157.619C152.934 157.719 153.219 157.77 153.506 157.77Z" fill="black"/>
<path d="M118 64V88C118 89.656 116.656 91 115 91H83.5C83.5 92.656 84.844 94 86.5 94H118C119.656 94 121 92.656 121 91V67C121 65.344 119.656 64 118 64ZM116.5 86.5V62.5C116.5 60.844 115.156 59.5 113.5 59.5H82C80.344 59.5 79 60.844 79 62.5V86.5C79 88.156 80.344 89.5 82 89.5H113.5C115.156 89.5 116.5 88.156 116.5 86.5ZM82 62.5H113.5V86.5H82V62.5ZM99.4405 77.9665L94.9585 73.195L90.475 80.851L87.112 77.3365L83.4685 85.03H112.051L105.605 68.1625L99.4405 77.9665V77.9665ZM88 73C89.656 73 91 71.656 91 70C91 68.344 89.656 67 88 67C86.344 67 85 68.344 85 70C85 71.656 86.344 73 88 73Z" fill="black"/>
</svg>
