<svg width="200" height="200" viewBox="0 0 200 200" fill="none" xmlns="http://www.w3.org/2000/svg">
<rect width="200" height="200" fill="#EFF0F3"/>
<path d="M85.032 90.938H109.032L100.97 81L94.97 88.968L91.032 82.968L85.032 90.938ZM106.968 75.002H112.968V90.94C112.968 92.0027 112.577 92.94 111.796 93.752C111.015 94.564 110.093 94.97 109.03 94.97H85.03C83.9673 94.97 83.03 94.564 82.218 93.752C81.406 92.94 81 92.0027 81 90.94V66.94C81 65.8773 81.406 64.9553 82.218 64.174C83.03 63.3927 83.9673 63.002 85.03 63.002H100.968V69.002H106.968V75.002V75.002ZM112.968 66.938V72.938H109.03V66.938H103.03V63H109.03V57H112.968V63H118.968V66.938H112.968Z" fill="black"/>
<path d="M54.2549 128.958C54.2549 128.84 54.2913 128.737 54.3643 128.65C54.4417 128.564 54.5329 128.521 54.6377 128.521H60.6465C60.765 128.521 60.8538 128.559 60.9131 128.637C60.9769 128.71 61.0088 128.801 61.0088 128.91V129.648C61.0088 129.753 60.9769 129.844 60.9131 129.922C60.8538 129.995 60.765 130.031 60.6465 130.031H55.9707V133.025H59.6895C59.8079 133.025 59.8968 133.064 59.9561 133.142C60.0199 133.215 60.0518 133.306 60.0518 133.415V134.153C60.0518 134.258 60.0199 134.349 59.9561 134.427C59.8968 134.5 59.8079 134.536 59.6895 134.536H55.9707V137.489H60.6807C60.7992 137.489 60.888 137.528 60.9473 137.605C61.0111 137.678 61.043 137.77 61.043 137.879V138.617C61.043 138.722 61.0111 138.813 60.9473 138.891C60.888 138.964 60.7992 139 60.6807 139H54.6309C54.526 139 54.4372 138.957 54.3643 138.87C54.2913 138.784 54.2549 138.681 54.2549 138.562V128.958ZM64.8916 137.12C64.8916 137.444 65.0055 137.605 65.2334 137.605C65.3063 137.605 65.3997 137.585 65.5137 137.544C65.7233 137.466 65.8509 137.428 65.8965 137.428C66.0013 137.428 66.0833 137.494 66.1426 137.626L66.3545 138.111C66.3818 138.18 66.3955 138.243 66.3955 138.303C66.3955 138.408 66.3089 138.535 66.1357 138.686C65.7894 138.973 65.3359 139.116 64.7754 139.116C63.7546 139.116 63.2441 138.435 63.2441 137.072V127.324C63.2441 127.201 63.2806 127.096 63.3535 127.01C63.4264 126.923 63.513 126.88 63.6133 126.88H64.5293C64.6341 126.88 64.7207 126.923 64.7891 127.01C64.8574 127.096 64.8916 127.201 64.8916 127.324V137.12ZM68.7334 129.97C68.4235 129.97 68.1592 129.863 67.9404 129.648C67.7217 129.439 67.6123 129.174 67.6123 128.855C67.6123 128.546 67.7217 128.281 67.9404 128.062C68.1501 127.853 68.4144 127.748 68.7334 127.748C69.221 127.748 69.5628 127.971 69.7588 128.418C69.818 128.55 69.8477 128.696 69.8477 128.855C69.8477 129.174 69.7383 129.439 69.5195 129.648C69.3008 129.863 69.0387 129.97 68.7334 129.97ZM69.5332 137.12C69.5332 137.444 69.6403 137.605 69.8545 137.605C69.9274 137.605 70.0094 137.585 70.1006 137.544C70.2783 137.466 70.3991 137.428 70.4629 137.428C70.5586 137.428 70.6361 137.494 70.6953 137.626L70.9072 138.104C70.9437 138.182 70.9619 138.255 70.9619 138.323C70.9619 138.519 70.7933 138.701 70.4561 138.87C70.137 139.034 69.8203 139.116 69.5059 139.116C69.196 139.116 68.9476 139.082 68.7607 139.014C68.5739 138.945 68.4144 138.831 68.2822 138.672C68.0179 138.344 67.8857 137.811 67.8857 137.072V131.74C67.8857 131.613 67.9222 131.506 67.9951 131.419C68.068 131.332 68.1546 131.289 68.2549 131.289H69.1709C69.2757 131.289 69.3623 131.332 69.4307 131.419C69.499 131.506 69.5332 131.613 69.5332 131.74V137.12ZM73.7031 129.97C73.3932 129.97 73.1289 129.863 72.9102 129.648C72.6914 129.439 72.582 129.174 72.582 128.855C72.582 128.546 72.6914 128.281 72.9102 128.062C73.1198 127.853 73.3841 127.748 73.7031 127.748C74.1908 127.748 74.5326 127.971 74.7285 128.418C74.7878 128.55 74.8174 128.696 74.8174 128.855C74.8174 129.174 74.708 129.439 74.4893 129.648C74.2705 129.863 74.0085 129.97 73.7031 129.97ZM72.1855 141.461C72.6549 141.461 72.8896 141.03 72.8896 140.169V131.74C72.8896 131.608 72.9238 131.501 72.9922 131.419C73.0605 131.332 73.1471 131.289 73.252 131.289H74.1885C74.2887 131.289 74.3753 131.332 74.4482 131.419C74.5212 131.501 74.5576 131.608 74.5576 131.74V139.896C74.5576 140.862 74.3617 141.607 73.9697 142.131C73.596 142.632 73.0879 142.883 72.4453 142.883C71.9121 142.883 71.4883 142.764 71.1738 142.527C71.0052 142.386 70.9209 142.24 70.9209 142.09C70.9209 142.017 70.9505 141.882 71.0098 141.687C71.0645 141.495 71.1191 141.358 71.1738 141.276C71.224 141.194 71.29 141.153 71.3721 141.153C71.4587 141.153 71.5316 141.169 71.5908 141.201C71.6501 141.233 71.7093 141.27 71.7686 141.311C71.9326 141.411 72.0716 141.461 72.1855 141.461ZM78.3994 135.521L78.3926 135.65C78.3926 136.275 78.5908 136.776 78.9873 137.154C79.402 137.555 79.9648 137.756 80.6758 137.756C81.3229 137.756 81.9245 137.562 82.4805 137.175C82.5853 137.102 82.6787 137.065 82.7607 137.065C82.9294 137.065 83.057 137.15 83.1436 137.318L83.3281 137.701C83.3691 137.792 83.3896 137.89 83.3896 137.995C83.3896 138.1 83.3418 138.209 83.2461 138.323C83.1549 138.433 83.0342 138.533 82.8838 138.624C82.7334 138.715 82.5579 138.795 82.3574 138.863C82.1615 138.932 81.9587 138.989 81.749 139.034C81.3298 139.125 80.8923 139.171 80.4365 139.171C79.9808 139.171 79.5205 139.084 79.0557 138.911C78.5954 138.738 78.1966 138.485 77.8594 138.152C77.1348 137.446 76.7725 136.491 76.7725 135.288C76.7725 133.178 77.5153 131.866 79.001 131.351C79.4658 131.191 79.9421 131.111 80.4297 131.111C80.9219 131.111 81.3389 131.164 81.6807 131.269C82.027 131.373 82.3255 131.528 82.5762 131.733C83.1048 132.166 83.3691 132.77 83.3691 133.545C83.3691 134.306 83.0592 134.887 82.4395 135.288C81.8971 135.639 81.1816 135.814 80.293 135.814C79.7461 135.814 79.1149 135.716 78.3994 135.521ZM81.7627 133.524C81.7627 132.873 81.3252 132.547 80.4502 132.547C79.6162 132.547 79.0329 132.852 78.7002 133.463C78.5817 133.677 78.5042 133.941 78.4678 134.256C78.8597 134.452 79.3587 134.55 79.9648 134.55C81.1634 134.55 81.7627 134.208 81.7627 133.524ZM95.8516 138.535C95.8516 138.845 95.7103 139 95.4277 139H95.1201C94.8467 139 94.6667 138.891 94.5801 138.672C94.4844 138.421 94.3818 138.073 94.2725 137.626C94.0811 138.104 93.7552 138.483 93.2949 138.761C92.8392 139.034 92.2695 139.171 91.5859 139.171C90.6927 139.171 90.0342 138.893 89.6104 138.337C89.1865 137.776 88.9746 136.951 88.9746 135.862V131.74C88.9746 131.613 89.0133 131.506 89.0908 131.419C89.1729 131.332 89.2868 131.289 89.4326 131.289H90.1846C90.4854 131.289 90.6357 131.439 90.6357 131.74V135.787C90.6357 136.876 90.8887 137.505 91.3945 137.674C91.5586 137.729 91.7523 137.756 91.9756 137.756C92.2035 137.756 92.4359 137.703 92.6729 137.599C92.9144 137.494 93.1309 137.355 93.3223 137.182C93.7507 136.785 93.9648 136.332 93.9648 135.821V131.74C93.9648 131.613 94.0036 131.506 94.0811 131.419C94.1585 131.332 94.2816 131.289 94.4502 131.289H95.168C95.3275 131.289 95.4437 131.332 95.5166 131.419C95.5895 131.506 95.626 131.613 95.626 131.74V136.013C95.626 136.974 95.6943 137.749 95.8311 138.337C95.8447 138.387 95.8516 138.453 95.8516 138.535ZM98.2646 131.781C98.2646 131.453 98.4219 131.289 98.7363 131.289H99.1123C99.3675 131.289 99.5407 131.385 99.6318 131.576C99.7594 131.85 99.8688 132.21 99.96 132.656C100.37 131.909 100.981 131.43 101.792 131.221C102.047 131.152 102.364 131.118 102.742 131.118C103.125 131.118 103.478 131.2 103.802 131.364C104.125 131.524 104.381 131.745 104.567 132.027C104.914 132.542 105.087 133.301 105.087 134.304V138.549C105.087 138.676 105.046 138.784 104.964 138.87C104.882 138.957 104.761 139 104.602 139H103.932C103.758 139 103.631 138.957 103.549 138.87C103.467 138.784 103.426 138.676 103.426 138.549V134.297C103.426 133.13 102.997 132.547 102.141 132.547C101.639 132.547 101.181 132.757 100.767 133.176C100.325 133.627 100.104 134.151 100.104 134.748V138.549C100.104 138.676 100.065 138.784 99.9873 138.87C99.9098 138.957 99.7913 139 99.6318 139H98.9277C98.7682 139 98.6475 138.957 98.5654 138.87C98.4834 138.784 98.4424 138.676 98.4424 138.549V134.352C98.4424 133.436 98.4128 132.798 98.3535 132.438C98.2943 132.073 98.2646 131.854 98.2646 131.781ZM113.789 138.638C113.789 138.879 113.671 139 113.434 139H112.771C112.593 139 112.486 138.966 112.449 138.897C112.413 138.825 112.392 138.761 112.388 138.706C112.383 138.647 112.374 138.576 112.36 138.494C112.333 138.271 112.294 138.029 112.244 137.77C111.889 138.421 111.33 138.852 110.569 139.062C110.3 139.134 110.004 139.171 109.681 139.171C109.357 139.171 109.034 139.116 108.71 139.007C108.386 138.902 108.099 138.745 107.849 138.535C107.284 138.061 107.001 137.439 107.001 136.669C107.001 135.826 107.311 135.181 107.931 134.734C108.441 134.374 109.097 134.194 109.899 134.194C110.701 134.194 111.381 134.429 111.937 134.898C111.95 134.743 111.957 134.55 111.957 134.317C111.957 134.085 111.911 133.853 111.82 133.62C111.729 133.388 111.599 133.194 111.431 133.039C111.084 132.734 110.601 132.581 109.981 132.581C109.425 132.581 108.86 132.734 108.286 133.039C108.177 133.098 108.081 133.128 107.999 133.128C107.876 133.128 107.757 133.007 107.644 132.766C107.521 132.52 107.459 132.342 107.459 132.232C107.459 132.032 107.609 131.838 107.91 131.651C108.484 131.296 109.252 131.118 110.214 131.118C111.089 131.118 111.813 131.357 112.388 131.836C113.067 132.41 113.406 133.221 113.406 134.27C113.406 134.734 113.331 135.32 113.181 136.026C113.568 137.129 113.771 138 113.789 138.638ZM109.209 135.739C109.022 135.876 108.888 136.013 108.806 136.149C108.728 136.286 108.689 136.448 108.689 136.635C108.689 136.817 108.721 136.981 108.785 137.127C108.854 137.268 108.947 137.387 109.065 137.482C109.316 137.678 109.596 137.776 109.906 137.776C110.221 137.776 110.478 137.74 110.679 137.667C110.879 137.594 111.052 137.501 111.198 137.387C111.513 137.141 111.67 136.881 111.67 136.607C111.643 136.266 111.453 135.997 111.103 135.801C110.788 135.618 110.417 135.527 109.988 135.527C109.656 135.527 109.396 135.598 109.209 135.739ZM123.667 132.328C123.667 132.583 123.523 132.711 123.236 132.711H121.568V138.515C121.568 138.66 121.527 138.779 121.445 138.87C121.363 138.957 121.249 139 121.104 139H120.434C120.274 139 120.151 138.957 120.064 138.87C119.978 138.779 119.935 138.66 119.935 138.515V132.711H118.971C118.684 132.711 118.54 132.581 118.54 132.321V131.938C118.54 131.834 118.567 131.756 118.622 131.706C118.681 131.651 118.788 131.601 118.943 131.556L119.962 131.392C119.729 130.781 119.593 130.33 119.552 130.038C119.515 129.742 119.497 129.462 119.497 129.197C119.497 128.928 119.556 128.648 119.675 128.356C119.793 128.065 119.966 127.807 120.194 127.584C120.705 127.083 121.384 126.832 122.231 126.832C122.901 126.832 123.478 126.976 123.961 127.263C124.23 127.427 124.364 127.575 124.364 127.707C124.364 127.835 124.323 127.955 124.241 128.069L123.913 128.534C123.822 128.657 123.735 128.719 123.653 128.719C123.576 128.719 123.501 128.696 123.428 128.65C123.355 128.605 123.268 128.555 123.168 128.5C122.899 128.354 122.589 128.281 122.238 128.281C121.468 128.281 121.083 128.767 121.083 129.737C121.083 130.207 121.188 130.724 121.397 131.289H123.236C123.523 131.289 123.667 131.414 123.667 131.665V132.328ZM124.665 135.117C124.665 134.525 124.763 133.982 124.959 133.49C125.16 132.993 125.433 132.57 125.779 132.219C126.504 131.485 127.418 131.118 128.521 131.118C129.756 131.118 130.713 131.485 131.392 132.219C132.048 132.925 132.376 133.896 132.376 135.131C132.376 136.325 132.005 137.3 131.262 138.057C130.537 138.799 129.623 139.171 128.521 139.171C127.358 139.171 126.424 138.79 125.718 138.029C125.016 137.286 124.665 136.316 124.665 135.117ZM126.859 133.381C126.691 133.632 126.568 133.919 126.49 134.242C126.413 134.561 126.374 134.887 126.374 135.22C126.374 135.548 126.417 135.865 126.504 136.17C126.595 136.471 126.729 136.74 126.907 136.977C127.299 137.496 127.846 137.756 128.548 137.756C129.263 137.756 129.806 137.501 130.175 136.99C130.503 136.544 130.667 135.935 130.667 135.165C130.667 134.012 130.289 133.217 129.532 132.779C129.254 132.62 128.917 132.54 128.521 132.54C128.129 132.54 127.796 132.618 127.522 132.772C127.254 132.923 127.033 133.126 126.859 133.381ZM138.617 132.328C138.617 132.583 138.474 132.711 138.187 132.711H136.259V137.004C136.259 137.469 136.489 137.701 136.949 137.701C137.241 137.701 137.621 137.555 138.091 137.264C138.182 137.204 138.28 137.175 138.385 137.175C138.494 137.175 138.581 137.25 138.645 137.4L138.802 137.756C138.861 137.893 138.891 138.009 138.891 138.104C138.891 138.2 138.818 138.312 138.672 138.439C138.531 138.562 138.348 138.674 138.125 138.774C137.619 139.002 137.161 139.116 136.751 139.116C136.341 139.116 136.015 139.075 135.773 138.993C135.536 138.907 135.334 138.779 135.165 138.61C134.8 138.255 134.618 137.742 134.618 137.072V132.711H134.044C133.757 132.711 133.613 132.581 133.613 132.321V131.932C133.613 131.827 133.641 131.745 133.695 131.686C133.75 131.626 133.857 131.581 134.017 131.549L134.7 131.351L134.96 129.744C135.01 129.443 135.133 129.293 135.329 129.293H135.896C136.001 129.293 136.088 129.336 136.156 129.423C136.225 129.505 136.259 129.612 136.259 129.744V131.289H138.187C138.474 131.289 138.617 131.414 138.617 131.665V132.328ZM139.827 135.117C139.827 134.525 139.925 133.982 140.121 133.49C140.322 132.993 140.595 132.57 140.941 132.219C141.666 131.485 142.58 131.118 143.683 131.118C144.918 131.118 145.875 131.485 146.554 132.219C147.21 132.925 147.538 133.896 147.538 135.131C147.538 136.325 147.167 137.3 146.424 138.057C145.699 138.799 144.785 139.171 143.683 139.171C142.521 139.171 141.586 138.79 140.88 138.029C140.178 137.286 139.827 136.316 139.827 135.117ZM142.021 133.381C141.853 133.632 141.73 133.919 141.652 134.242C141.575 134.561 141.536 134.887 141.536 135.22C141.536 135.548 141.579 135.865 141.666 136.17C141.757 136.471 141.892 136.74 142.069 136.977C142.461 137.496 143.008 137.756 143.71 137.756C144.425 137.756 144.968 137.501 145.337 136.99C145.665 136.544 145.829 135.935 145.829 135.165C145.829 134.012 145.451 133.217 144.694 132.779C144.416 132.62 144.079 132.54 143.683 132.54C143.291 132.54 142.958 132.618 142.685 132.772C142.416 132.923 142.195 133.126 142.021 133.381ZM77.0938 152.253V147.311C77.0938 147.192 77.1279 147.092 77.1963 147.01C77.2692 146.923 77.3581 146.88 77.4629 146.88H78.4131C78.5179 146.88 78.6045 146.923 78.6729 147.01C78.7412 147.092 78.7754 147.192 78.7754 147.311V156.074C78.7754 156.995 78.8483 157.758 78.9941 158.364C79.0078 158.428 79.0146 158.51 79.0146 158.61C79.0146 158.706 78.9714 158.795 78.8848 158.877C78.8027 158.959 78.6956 159 78.5635 159H78.2285C77.9596 159 77.7796 158.891 77.6885 158.672C77.57 158.394 77.472 158.027 77.3945 157.571C77.0436 158.314 76.4535 158.809 75.624 159.055C75.3506 159.132 75.0088 159.171 74.5986 159.171C74.193 159.171 73.7874 159.066 73.3818 158.856C72.9808 158.647 72.639 158.362 72.3564 158.002C71.7777 157.255 71.4883 156.325 71.4883 155.213C71.4883 154.064 71.7686 153.112 72.3291 152.355C72.9352 151.531 73.7441 151.118 74.7559 151.118C75.7676 151.118 76.5469 151.496 77.0938 152.253ZM73.2383 155.261C73.2383 155.571 73.2747 155.874 73.3477 156.17C73.4251 156.466 73.5413 156.73 73.6963 156.963C74.0426 157.492 74.5212 157.756 75.1318 157.756C75.6878 157.756 76.1755 157.514 76.5947 157.031C77.0413 156.53 77.2646 155.938 77.2646 155.254C77.2646 154.424 77.0482 153.759 76.6152 153.258C76.2005 152.779 75.6901 152.54 75.084 152.54C74.4505 152.54 73.9697 152.839 73.6416 153.436C73.3727 153.937 73.2383 154.545 73.2383 155.261ZM82.46 155.521L82.4531 155.65C82.4531 156.275 82.6514 156.776 83.0479 157.154C83.4626 157.555 84.0254 157.756 84.7363 157.756C85.3835 157.756 85.985 157.562 86.541 157.175C86.6458 157.102 86.7393 157.065 86.8213 157.065C86.9899 157.065 87.1175 157.15 87.2041 157.318L87.3887 157.701C87.4297 157.792 87.4502 157.89 87.4502 157.995C87.4502 158.1 87.4023 158.209 87.3066 158.323C87.2155 158.433 87.0947 158.533 86.9443 158.624C86.7939 158.715 86.6185 158.795 86.418 158.863C86.222 158.932 86.0192 158.989 85.8096 159.034C85.3903 159.125 84.9528 159.171 84.4971 159.171C84.0413 159.171 83.5811 159.084 83.1162 158.911C82.6559 158.738 82.2572 158.485 81.9199 158.152C81.1953 157.446 80.833 156.491 80.833 155.288C80.833 153.178 81.5758 151.866 83.0615 151.351C83.5264 151.191 84.0026 151.111 84.4902 151.111C84.9824 151.111 85.3994 151.164 85.7412 151.269C86.0876 151.373 86.3861 151.528 86.6367 151.733C87.1654 152.166 87.4297 152.77 87.4297 153.545C87.4297 154.306 87.1198 154.887 86.5 155.288C85.9577 155.639 85.2422 155.814 84.3535 155.814C83.8066 155.814 83.1755 155.716 82.46 155.521ZM85.8232 153.524C85.8232 152.873 85.3857 152.547 84.5107 152.547C83.6768 152.547 83.0934 152.852 82.7607 153.463C82.6423 153.677 82.5648 153.941 82.5283 154.256C82.9202 154.452 83.4193 154.55 84.0254 154.55C85.224 154.55 85.8232 154.208 85.8232 153.524ZM94.71 157.817C94.7555 158.273 94.7783 158.843 94.7783 159.526V162.35C94.7783 162.687 94.6439 162.855 94.375 162.855H93.5273C93.2402 162.855 93.0967 162.678 93.0967 162.322V154.755C93.0967 153.474 93.0283 152.54 92.8916 151.952C92.8779 151.893 92.8711 151.811 92.8711 151.706C92.8711 151.601 92.9121 151.506 92.9941 151.419C93.0807 151.332 93.1901 151.289 93.3223 151.289H93.7393C93.9899 151.289 94.1676 151.398 94.2725 151.617C94.3955 151.872 94.4889 152.203 94.5527 152.608C94.8717 152.052 95.307 151.647 95.8584 151.392C96.2503 151.209 96.6947 151.118 97.1914 151.118C97.6927 151.118 98.1393 151.216 98.5312 151.412C98.9232 151.604 99.249 151.868 99.5088 152.205C100.024 152.875 100.281 153.773 100.281 154.898C100.281 156.074 99.9919 157.068 99.4131 157.879C98.8024 158.74 98.0026 159.171 97.0137 159.171C95.9837 159.171 95.2158 158.72 94.71 157.817ZM94.6211 155.391C94.6211 156.047 94.8398 156.612 95.2773 157.086C95.6921 157.533 96.1615 157.756 96.6855 157.756C97.3464 157.756 97.8363 157.435 98.1553 156.792C98.4105 156.282 98.5381 155.637 98.5381 154.857C98.5381 154.229 98.3877 153.695 98.0869 153.258C97.7633 152.784 97.3327 152.547 96.7949 152.547C96.1888 152.547 95.6715 152.798 95.2432 153.299C94.8285 153.791 94.6211 154.363 94.6211 155.015V155.391ZM103.487 155.521L103.48 155.65C103.48 156.275 103.679 156.776 104.075 157.154C104.49 157.555 105.053 157.756 105.764 157.756C106.411 157.756 107.012 157.562 107.568 157.175C107.673 157.102 107.767 157.065 107.849 157.065C108.017 157.065 108.145 157.15 108.231 157.318L108.416 157.701C108.457 157.792 108.478 157.89 108.478 157.995C108.478 158.1 108.43 158.209 108.334 158.323C108.243 158.433 108.122 158.533 107.972 158.624C107.821 158.715 107.646 158.795 107.445 158.863C107.249 158.932 107.047 158.989 106.837 159.034C106.418 159.125 105.98 159.171 105.524 159.171C105.069 159.171 104.608 159.084 104.144 158.911C103.683 158.738 103.285 158.485 102.947 158.152C102.223 157.446 101.86 156.491 101.86 155.288C101.86 153.178 102.603 151.866 104.089 151.351C104.554 151.191 105.03 151.111 105.518 151.111C106.01 151.111 106.427 151.164 106.769 151.269C107.115 151.373 107.413 151.528 107.664 151.733C108.193 152.166 108.457 152.77 108.457 153.545C108.457 154.306 108.147 154.887 107.527 155.288C106.985 155.639 106.27 155.814 105.381 155.814C104.834 155.814 104.203 155.716 103.487 155.521ZM106.851 153.524C106.851 152.873 106.413 152.547 105.538 152.547C104.704 152.547 104.121 152.852 103.788 153.463C103.67 153.677 103.592 153.941 103.556 154.256C103.948 154.452 104.447 154.55 105.053 154.55C106.251 154.55 106.851 154.208 106.851 153.524ZM110.344 151.781C110.344 151.453 110.487 151.289 110.774 151.289H111.144C111.394 151.289 111.572 151.398 111.677 151.617C111.827 151.936 111.937 152.376 112.005 152.937C112.005 152.946 112.007 152.95 112.012 152.95C112.021 152.95 112.037 152.873 112.06 152.718C112.082 152.563 112.148 152.374 112.258 152.15C112.367 151.923 112.502 151.731 112.661 151.576C112.985 151.271 113.381 151.118 113.851 151.118C114.375 151.118 114.739 151.205 114.944 151.378C115.04 151.455 115.079 151.562 115.061 151.699L114.951 152.561C114.924 152.793 114.805 152.909 114.596 152.909C114.495 152.909 114.372 152.889 114.227 152.848C113.944 152.775 113.721 152.738 113.557 152.738C113.393 152.738 113.219 152.811 113.037 152.957C112.855 153.098 112.698 153.276 112.565 153.49C112.297 153.937 112.162 154.413 112.162 154.919V158.549C112.162 158.676 112.126 158.784 112.053 158.87C111.98 158.957 111.875 159 111.738 159H110.945C110.799 159 110.688 158.957 110.61 158.87C110.537 158.784 110.501 158.676 110.501 158.549V153.839C110.501 153.037 110.474 152.508 110.419 152.253C110.369 151.993 110.344 151.836 110.344 151.781ZM120.741 152.328C120.741 152.583 120.598 152.711 120.311 152.711H118.643V158.515C118.643 158.66 118.602 158.779 118.52 158.87C118.438 158.957 118.324 159 118.178 159H117.508C117.348 159 117.225 158.957 117.139 158.87C117.052 158.779 117.009 158.66 117.009 158.515V152.711H116.045C115.758 152.711 115.614 152.581 115.614 152.321V151.938C115.614 151.834 115.642 151.756 115.696 151.706C115.756 151.651 115.863 151.601 116.018 151.556L117.036 151.392C116.804 150.781 116.667 150.33 116.626 150.038C116.59 149.742 116.571 149.462 116.571 149.197C116.571 148.928 116.631 148.648 116.749 148.356C116.868 148.065 117.041 147.807 117.269 147.584C117.779 147.083 118.458 146.832 119.306 146.832C119.976 146.832 120.552 146.976 121.035 147.263C121.304 147.427 121.438 147.575 121.438 147.707C121.438 147.835 121.397 147.955 121.315 148.069L120.987 148.534C120.896 148.657 120.81 148.719 120.728 148.719C120.65 148.719 120.575 148.696 120.502 148.65C120.429 148.605 120.342 148.555 120.242 148.5C119.973 148.354 119.663 148.281 119.312 148.281C118.542 148.281 118.157 148.767 118.157 149.737C118.157 150.207 118.262 150.724 118.472 151.289H120.311C120.598 151.289 120.741 151.414 120.741 151.665V152.328ZM123.011 149.97C122.701 149.97 122.437 149.863 122.218 149.648C121.999 149.439 121.89 149.174 121.89 148.855C121.89 148.546 121.999 148.281 122.218 148.062C122.427 147.853 122.692 147.748 123.011 147.748C123.498 147.748 123.84 147.971 124.036 148.418C124.095 148.55 124.125 148.696 124.125 148.855C124.125 149.174 124.016 149.439 123.797 149.648C123.578 149.863 123.316 149.97 123.011 149.97ZM123.811 157.12C123.811 157.444 123.918 157.605 124.132 157.605C124.205 157.605 124.287 157.585 124.378 157.544C124.556 157.466 124.676 157.428 124.74 157.428C124.836 157.428 124.913 157.494 124.973 157.626L125.185 158.104C125.221 158.182 125.239 158.255 125.239 158.323C125.239 158.519 125.071 158.701 124.733 158.87C124.414 159.034 124.098 159.116 123.783 159.116C123.473 159.116 123.225 159.082 123.038 159.014C122.851 158.945 122.692 158.831 122.56 158.672C122.295 158.344 122.163 157.811 122.163 157.072V151.74C122.163 151.613 122.2 151.506 122.272 151.419C122.345 151.332 122.432 151.289 122.532 151.289H123.448C123.553 151.289 123.64 151.332 123.708 151.419C123.776 151.506 123.811 151.613 123.811 151.74V157.12ZM128.521 157.12C128.521 157.444 128.634 157.605 128.862 157.605C128.935 157.605 129.029 157.585 129.143 157.544C129.352 157.466 129.48 157.428 129.525 157.428C129.63 157.428 129.712 157.494 129.771 157.626L129.983 158.111C130.011 158.18 130.024 158.243 130.024 158.303C130.024 158.408 129.938 158.535 129.765 158.686C129.418 158.973 128.965 159.116 128.404 159.116C127.383 159.116 126.873 158.435 126.873 157.072V147.324C126.873 147.201 126.91 147.096 126.982 147.01C127.055 146.923 127.142 146.88 127.242 146.88H128.158C128.263 146.88 128.35 146.923 128.418 147.01C128.486 147.096 128.521 147.201 128.521 147.324V157.12Z" fill="black"/>
</svg>
