<svg width="159" height="57" viewBox="0 0 159 57" fill="none" xmlns="http://www.w3.org/2000/svg">
<path d="M63.8214 28.736C64.3734 28.736 64.8414 28.668 65.2254 28.532C65.6174 28.388 65.9374 28.192 66.1854 27.944C66.4334 27.696 66.6134 27.408 66.7254 27.08C66.8374 26.744 66.8934 26.384 66.8934 26C66.8934 25.232 66.6414 24.632 66.1374 24.2C65.6414 23.768 64.8694 23.552 63.8214 23.552H62.1894V28.736H63.8214ZM72.4374 38H68.7654C68.0854 38 67.5974 37.744 67.3014 37.232L64.3974 32.156C64.2614 31.94 64.1094 31.784 63.9414 31.688C63.7734 31.584 63.5334 31.532 63.2214 31.532H62.1894V38H58.1334V20.516H63.8214C65.0854 20.516 66.1614 20.648 67.0494 20.912C67.9454 21.168 68.6734 21.528 69.2334 21.992C69.8014 22.456 70.2134 23.004 70.4694 23.636C70.7254 24.268 70.8534 24.956 70.8534 25.7C70.8534 26.268 70.7774 26.804 70.6254 27.308C70.4734 27.812 70.2494 28.28 69.9534 28.712C69.6574 29.136 69.2894 29.516 68.8494 29.852C68.4174 30.188 67.9174 30.464 67.3494 30.68C67.6134 30.816 67.8614 30.988 68.0934 31.196C68.3254 31.396 68.5334 31.636 68.7174 31.916L72.4374 38ZM78.3905 25.364C79.3345 25.364 80.1945 25.512 80.9705 25.808C81.7465 26.104 82.4105 26.528 82.9625 27.08C83.5225 27.632 83.9545 28.304 84.2585 29.096C84.5705 29.88 84.7265 30.764 84.7265 31.748C84.7265 32.74 84.5705 33.636 84.2585 34.436C83.9545 35.228 83.5225 35.904 82.9625 36.464C82.4105 37.016 81.7465 37.444 80.9705 37.748C80.1945 38.044 79.3345 38.192 78.3905 38.192C77.4385 38.192 76.5705 38.044 75.7865 37.748C75.0105 37.444 74.3385 37.016 73.7705 36.464C73.2105 35.904 72.7745 35.228 72.4625 34.436C72.1585 33.636 72.0065 32.74 72.0065 31.748C72.0065 30.764 72.1585 29.88 72.4625 29.096C72.7745 28.304 73.2105 27.632 73.7705 27.08C74.3385 26.528 75.0105 26.104 75.7865 25.808C76.5705 25.512 77.4385 25.364 78.3905 25.364ZM78.3905 35.432C79.2465 35.432 79.8745 35.132 80.2745 34.532C80.6825 33.924 80.8865 33.004 80.8865 31.772C80.8865 30.54 80.6825 29.624 80.2745 29.024C79.8745 28.424 79.2465 28.124 78.3905 28.124C77.5105 28.124 76.8665 28.424 76.4585 29.024C76.0505 29.624 75.8465 30.54 75.8465 31.772C75.8465 33.004 76.0505 33.924 76.4585 34.532C76.8665 35.132 77.5105 35.432 78.3905 35.432ZM92.3358 25.364C93.2798 25.364 94.1398 25.512 94.9158 25.808C95.6918 26.104 96.3558 26.528 96.9078 27.08C97.4678 27.632 97.8998 28.304 98.2038 29.096C98.5158 29.88 98.6718 30.764 98.6718 31.748C98.6718 32.74 98.5158 33.636 98.2038 34.436C97.8998 35.228 97.4678 35.904 96.9078 36.464C96.3558 37.016 95.6918 37.444 94.9158 37.748C94.1398 38.044 93.2798 38.192 92.3358 38.192C91.3838 38.192 90.5158 38.044 89.7318 37.748C88.9558 37.444 88.2838 37.016 87.7158 36.464C87.1558 35.904 86.7198 35.228 86.4078 34.436C86.1038 33.636 85.9518 32.74 85.9518 31.748C85.9518 30.764 86.1038 29.88 86.4078 29.096C86.7198 28.304 87.1558 27.632 87.7158 27.08C88.2838 26.528 88.9558 26.104 89.7318 25.808C90.5158 25.512 91.3838 25.364 92.3358 25.364ZM92.3358 35.432C93.1918 35.432 93.8198 35.132 94.2198 34.532C94.6278 33.924 94.8318 33.004 94.8318 31.772C94.8318 30.54 94.6278 29.624 94.2198 29.024C93.8198 28.424 93.1918 28.124 92.3358 28.124C91.4558 28.124 90.8118 28.424 90.4038 29.024C89.9958 29.624 89.7918 30.54 89.7918 31.772C89.7918 33.004 89.9958 33.924 90.4038 34.532C90.8118 35.132 91.4558 35.432 92.3358 35.432ZM100.545 38V25.556H102.849C103.313 25.556 103.617 25.764 103.761 26.18L103.965 26.852C104.173 26.636 104.389 26.44 104.613 26.264C104.837 26.08 105.077 25.924 105.333 25.796C105.597 25.66 105.877 25.556 106.173 25.484C106.477 25.404 106.809 25.364 107.169 25.364C107.921 25.364 108.541 25.56 109.029 25.952C109.525 26.336 109.901 26.852 110.157 27.5C110.365 27.116 110.617 26.788 110.913 26.516C111.217 26.244 111.541 26.024 111.885 25.856C112.237 25.688 112.605 25.564 112.989 25.484C113.381 25.404 113.769 25.364 114.153 25.364C114.865 25.364 115.497 25.472 116.049 25.688C116.601 25.896 117.061 26.204 117.429 26.612C117.805 27.012 118.089 27.508 118.281 28.1C118.473 28.684 118.569 29.348 118.569 30.092V38H114.849V30.092C114.849 28.804 114.297 28.16 113.193 28.16C112.689 28.16 112.269 28.328 111.933 28.664C111.605 28.992 111.441 29.468 111.441 30.092V38H107.721V30.092C107.721 29.38 107.581 28.88 107.301 28.592C107.021 28.304 106.609 28.16 106.065 28.16C105.729 28.16 105.409 28.236 105.105 28.388C104.809 28.54 104.529 28.744 104.265 29V38H100.545ZM124.679 34.616C124.959 34.92 125.263 35.136 125.591 35.264C125.919 35.392 126.263 35.456 126.623 35.456C126.967 35.456 127.283 35.388 127.571 35.252C127.859 35.116 128.107 34.9 128.315 34.604C128.531 34.3 128.699 33.908 128.819 33.428C128.939 32.948 128.999 32.364 128.999 31.676C128.999 31.02 128.951 30.468 128.855 30.02C128.759 29.572 128.623 29.212 128.447 28.94C128.279 28.66 128.075 28.46 127.835 28.34C127.595 28.22 127.327 28.16 127.031 28.16C126.487 28.16 126.039 28.26 125.687 28.46C125.335 28.66 124.999 28.952 124.679 29.336V34.616ZM124.451 27.092C124.939 26.572 125.491 26.148 126.107 25.82C126.731 25.484 127.471 25.316 128.327 25.316C128.975 25.316 129.575 25.46 130.127 25.748C130.679 26.036 131.155 26.452 131.555 26.996C131.955 27.54 132.267 28.208 132.491 29C132.723 29.784 132.839 30.676 132.839 31.676C132.839 32.612 132.707 33.476 132.443 34.268C132.187 35.06 131.823 35.748 131.351 36.332C130.887 36.916 130.327 37.372 129.671 37.7C129.023 38.028 128.303 38.192 127.511 38.192C126.863 38.192 126.319 38.1 125.879 37.916C125.439 37.732 125.039 37.484 124.679 37.172V41.948H120.959V25.556H123.263C123.727 25.556 124.031 25.764 124.175 26.18L124.451 27.092ZM141.184 32.936C140.44 32.968 139.828 33.032 139.348 33.128C138.868 33.224 138.488 33.344 138.208 33.488C137.928 33.632 137.732 33.796 137.62 33.98C137.516 34.164 137.464 34.364 137.464 34.58C137.464 35.004 137.58 35.304 137.812 35.48C138.044 35.648 138.384 35.732 138.832 35.732C139.312 35.732 139.732 35.648 140.092 35.48C140.452 35.312 140.816 35.04 141.184 34.664V32.936ZM134.488 27.284C135.24 26.62 136.072 26.128 136.984 25.808C137.904 25.48 138.888 25.316 139.936 25.316C140.688 25.316 141.364 25.44 141.964 25.688C142.572 25.928 143.084 26.268 143.5 26.708C143.924 27.14 144.248 27.656 144.472 28.256C144.696 28.856 144.808 29.512 144.808 30.224V38H143.104C142.752 38 142.484 37.952 142.3 37.856C142.124 37.76 141.976 37.56 141.856 37.256L141.592 36.572C141.28 36.836 140.98 37.068 140.692 37.268C140.404 37.468 140.104 37.64 139.792 37.784C139.488 37.92 139.16 38.02 138.808 38.084C138.464 38.156 138.08 38.192 137.656 38.192C137.088 38.192 136.572 38.12 136.108 37.976C135.644 37.824 135.248 37.604 134.92 37.316C134.6 37.028 134.352 36.672 134.176 36.248C134 35.816 133.912 35.32 133.912 34.76C133.912 34.312 134.024 33.86 134.248 33.404C134.472 32.94 134.86 32.52 135.412 32.144C135.964 31.76 136.708 31.44 137.644 31.184C138.58 30.928 139.76 30.784 141.184 30.752V30.224C141.184 29.496 141.032 28.972 140.728 28.652C140.432 28.324 140.008 28.16 139.456 28.16C139.016 28.16 138.656 28.208 138.376 28.304C138.096 28.4 137.844 28.508 137.62 28.628C137.404 28.748 137.192 28.856 136.984 28.952C136.776 29.048 136.528 29.096 136.24 29.096C135.984 29.096 135.768 29.032 135.592 28.904C135.416 28.776 135.272 28.624 135.16 28.448L134.488 27.284ZM150.906 20.036V38H147.186V20.036H150.906ZM157.224 25.556V38H153.504V25.556H157.224ZM157.608 22.148C157.608 22.444 157.548 22.724 157.428 22.988C157.308 23.244 157.144 23.472 156.936 23.672C156.728 23.864 156.484 24.02 156.204 24.14C155.932 24.252 155.64 24.308 155.328 24.308C155.024 24.308 154.74 24.252 154.476 24.14C154.212 24.02 153.976 23.864 153.768 23.672C153.568 23.472 153.408 23.244 153.288 22.988C153.176 22.724 153.12 22.444 153.12 22.148C153.12 21.844 153.176 21.56 153.288 21.296C153.408 21.032 153.568 20.8 153.768 20.6C153.976 20.4 154.212 20.244 154.476 20.132C154.74 20.02 155.024 19.964 155.328 19.964C155.64 19.964 155.932 20.02 156.204 20.132C156.484 20.244 156.728 20.4 156.936 20.6C157.144 20.8 157.308 21.032 157.428 21.296C157.548 21.56 157.608 21.844 157.608 22.148Z" fill="black"/>
<path d="M32.5 15.5L52.5 31.5L44.5 43.5L32.5 54L29 50L20 41.5L13.5 31L32.5 15.5Z" fill="#FF8E3C"/>
<path d="M33 2.375C20.745 2.375 10.7755 11.1824 10.7755 22.0047C10.7755 38.2136 31.5202 53.7776 32.4036 54.4323C32.5759 54.5613 32.7889 54.625 33 54.625C33.2111 54.625 33.4186 54.5629 33.589 54.4389C34.4724 53.7955 55.2245 38.4993 55.2245 22.0047C55.2245 11.1824 45.255 2.375 33 2.375ZM33.0037 52.7277C29.5941 50.0417 12.6276 35.9766 12.6276 22.0047C12.6276 12.0804 21.7674 4.00781 33 4.00781C44.2326 4.00781 53.3725 12.0804 53.3725 22.0047C53.3725 36.2134 36.4226 50.0776 33.0037 52.7277Z" fill="#FF8E3C"/>
<path d="M20.1109 21.4722L21.0799 22.6283C21.1579 22.7223 21.2829 22.7843 21.4079 22.8003H21.4549C21.5799 22.8003 21.6889 22.7692 21.7829 22.6912L32.5959 13.6752L43.4089 22.6912C43.5179 22.7692 43.6429 22.8163 43.7839 22.8003C43.9089 22.7843 44.0339 22.7223 44.1119 22.6283L45.0809 21.4722C45.2529 21.2692 45.2219 20.9412 45.0179 20.7692L33.7839 11.4103C33.1279 10.8633 32.0649 10.8633 31.4089 11.4103L27.5959 14.5972V11.5502C27.5959 11.2692 27.3769 11.0502 27.0959 11.0502H24.0959C23.8149 11.0502 23.5959 11.2692 23.5959 11.5502V17.9253L20.1739 20.7692C19.9709 20.9412 19.9399 21.2692 20.1109 21.4722Z" fill="#FF8E3C"/>
<path d="M24.3787 21.5503L32.5977 14.7011L40.8166 21.5503L32.5977 28.3994L24.3787 21.5503Z" fill="#FF8E3C" stroke="white"/>
<rect x="29.5977" y="22.0503" width="2" height="2" fill="white"/>
<rect x="29.5977" y="22.0503" width="2" height="2" fill="white"/>
<rect x="29.5977" y="22.0503" width="2" height="2" fill="white"/>
<rect x="33.5977" y="22.0503" width="2" height="2" fill="white"/>
<rect x="33.5977" y="22.0503" width="2" height="2" fill="white"/>
<rect x="33.5977" y="22.0503" width="2" height="2" fill="white"/>
<rect x="29.5977" y="19.0503" width="2" height="2" fill="white"/>
<rect x="29.5977" y="19.0503" width="2" height="2" fill="white"/>
<rect x="29.5977" y="19.0503" width="2" height="2" fill="white"/>
<rect x="33.5977" y="19.0503" width="2" height="2" fill="white"/>
<rect x="33.5977" y="19.0503" width="2" height="2" fill="white"/>
<rect x="33.5977" y="19.0503" width="2" height="2" fill="white"/>
</svg>
