<svg width="24" height="21" viewBox="0 0 24 21" fill="none" xmlns="http://www.w3.org/2000/svg">
<g clip-path="url(#clip0)">
<path d="M14.0224 2.95551L14.0226 2.95532C14.9528 2.11184 16.1506 1.649 17.3946 1.649C20.1686 1.649 22.4268 3.90669 22.4268 6.68124C22.4268 8.6745 21.8132 10.2488 20.3165 11.9956C19.2773 13.2075 17.4407 14.7702 15.7072 16.139C14.2336 17.3025 12.8601 18.3061 12.1697 18.8028C11.4792 18.3061 10.1057 17.3025 8.63223 16.139C6.89877 14.7702 5.06232 13.2075 4.02347 11.9957C2.5261 10.2488 1.91252 8.67453 1.91252 6.68124C1.91252 3.90669 4.17076 1.649 6.94476 1.649C8.18867 1.649 9.38644 2.1118 10.3167 2.95468C10.7861 3.38041 11.1661 3.88127 11.4467 4.44475L11.4471 4.44546C11.6035 4.7583 11.9166 4.8786 12.1697 4.8786C12.4228 4.8786 12.7358 4.7583 12.8923 4.44546L12.8926 4.44475C13.1732 3.88125 13.5532 3.38049 14.0224 2.95551Z" fill="#1F1235" fill-opacity="0.4" stroke="white"/>
</g>
<defs>
<clipPath id="clip0">
<rect width="22.7437" height="19.6702" fill="white" transform="translate(0.797821 0.534302)"/>
</clipPath>
</defs>
</svg>
