<svg width="40" height="40" viewBox="0 0 40 40" fill="none" xmlns="http://www.w3.org/2000/svg">
<circle cx="20" cy="20" r="20" fill="#25D366"/>
<g clip-path="url(#clip0)">
<path d="M24.8878 22.1173C24.6205 21.984 23.3171 21.3467 23.0745 21.2587C22.8318 21.1687 22.6538 21.1253 22.4765 21.392C22.3011 21.654 21.7911 22.2487 21.6371 22.4247C21.4818 22.598 21.3271 22.6113 21.0631 22.4913C20.7965 22.358 19.9405 22.078 18.9271 21.1713C18.1378 20.4647 17.6078 19.598 17.4518 19.3313C17.2971 19.0647 17.4351 18.918 17.5671 18.7847C17.6878 18.6647 17.8345 18.478 17.9678 18.32C18.0978 18.1593 18.1405 18.0527 18.2318 17.8793C18.3205 17.6927 18.2751 17.546 18.2098 17.4133C18.1431 17.28 17.6125 15.9733 17.3905 15.4527C17.1771 14.9333 16.9578 14.9993 16.7931 14.9993C16.6405 14.986 16.4631 14.986 16.2858 14.986C16.1085 14.986 15.8211 15.052 15.5771 15.3053C15.3345 15.572 14.6485 16.212 14.6485 17.5053C14.6485 18.7987 15.5998 20.052 15.7318 20.2387C15.8645 20.412 17.6031 23.0787 20.2651 24.2253C20.8998 24.492 21.3938 24.652 21.7798 24.7847C22.4145 24.9867 22.9931 24.958 23.4511 24.892C23.9611 24.8113 25.0218 24.2513 25.2431 23.6247C25.4698 22.998 25.4698 22.478 25.4031 22.358C25.3371 22.238 25.1631 22.1713 24.8965 22.0513L24.8878 22.1173ZM20.0545 28.6667H20.0405C18.4671 28.6667 16.9078 28.24 15.5471 27.44L15.2271 27.25L11.8938 28.1167L12.7871 24.8767L12.5745 24.5433C11.6945 23.1427 11.2271 21.5293 11.2271 19.868C11.2271 15.028 15.1871 11.0813 20.0645 11.0813C22.4238 11.0813 24.6378 12.0013 26.3051 13.668C27.9718 15.3207 28.8911 17.5347 28.8911 19.8813C28.8878 24.7207 24.9265 28.668 20.0598 28.668L20.0545 28.6667ZM27.5738 12.3993C25.5471 10.44 22.8805 9.33333 20.0405 9.33333C14.1898 9.33333 9.42647 14.0747 9.42381 19.9047C9.42381 21.768 9.91181 23.5847 10.8418 25.1893L9.33447 30.6667L14.9658 29.198C16.5178 30.036 18.2638 30.4813 20.0411 30.484H20.0465C25.8998 30.484 30.6651 25.7407 30.6678 19.91C30.6678 17.0867 29.5658 14.43 27.5611 12.4333L27.5738 12.3993Z" fill="white"/>
</g>
<defs>
<clipPath id="clip0">
<rect width="21.3333" height="21.3333" fill="white" transform="translate(9.3335 9.33333)"/>
</clipPath>
</defs>
</svg>
